<svg width="150" height="30" viewBox="0 0 150 30" fill="none" xmlns="http://www.w3.org/2000/svg">
<rect width="150" height="30" rx="8" fill="#616E7C"/>
<path d="M51.4568 21C51.3968 21 51.3428 20.982 51.2948 20.946C51.2588 20.898 51.2408 20.844 51.2408 20.784V8.616C51.2408 8.556 51.2588 8.508 51.2948 8.472C51.3428 8.424 51.3968 8.4 51.4568 8.4H55.9568C56.8568 8.4 57.6428 8.562 58.3148 8.886C58.9988 9.198 59.5268 9.642 59.8988 10.218C60.2708 10.794 60.4568 11.46 60.4568 12.216V17.184C60.4568 17.94 60.2708 18.606 59.8988 19.182C59.5268 19.758 58.9988 20.208 58.3148 20.532C57.6428 20.844 56.8568 21 55.9568 21H51.4568ZM53.7788 18.732C53.7788 18.792 53.8088 18.822 53.8688 18.822H56.0468C56.5988 18.822 57.0428 18.636 57.3788 18.264C57.7268 17.892 57.9068 17.394 57.9188 16.77V12.63C57.9188 12.006 57.7448 11.508 57.3968 11.136C57.0608 10.764 56.6048 10.578 56.0288 10.578H53.8688C53.8088 10.578 53.7788 10.608 53.7788 10.668V18.732ZM76.2457 10.362C76.2457 10.422 76.2217 10.476 76.1737 10.524C76.1377 10.56 76.0897 10.578 76.0297 10.578H70.1257C70.0657 10.578 70.0357 10.608 70.0357 10.668V13.458C70.0357 13.518 70.0657 13.548 70.1257 13.548H73.9957C74.0557 13.548 74.1037 13.572 74.1397 13.62C74.1877 13.656 74.2117 13.704 74.2117 13.764V15.51C74.2117 15.57 74.1877 15.624 74.1397 15.672C74.1037 15.708 74.0557 15.726 73.9957 15.726H70.1257C70.0657 15.726 70.0357 15.756 70.0357 15.816V18.732C70.0357 18.792 70.0657 18.822 70.1257 18.822H76.0297C76.0897 18.822 76.1377 18.846 76.1737 18.894C76.2217 18.93 76.2457 18.978 76.2457 19.038V20.784C76.2457 20.844 76.2217 20.898 76.1737 20.946C76.1377 20.982 76.0897 21 76.0297 21H67.7137C67.6537 21 67.5997 20.982 67.5517 20.946C67.5157 20.898 67.4977 20.844 67.4977 20.784V8.616C67.4977 8.556 67.5157 8.508 67.5517 8.472C67.5997 8.424 67.6537 8.4 67.7137 8.4H76.0297C76.0897 8.4 76.1377 8.424 76.1737 8.472C76.2217 8.508 76.2457 8.556 76.2457 8.616V10.362ZM87.4594 21.144C86.4994 21.144 85.6594 20.994 84.9394 20.694C84.2194 20.382 83.6614 19.944 83.2654 19.38C82.8814 18.804 82.6894 18.138 82.6894 17.382V16.986C82.6894 16.926 82.7074 16.878 82.7434 16.842C82.7914 16.794 82.8454 16.77 82.9054 16.77H84.9574C85.0174 16.77 85.0654 16.794 85.1014 16.842C85.1494 16.878 85.1734 16.926 85.1734 16.986V17.256C85.1734 17.736 85.3954 18.144 85.8394 18.48C86.2834 18.804 86.8834 18.966 87.6394 18.966C88.2754 18.966 88.7494 18.834 89.0614 18.57C89.3734 18.294 89.5294 17.958 89.5294 17.562C89.5294 17.274 89.4334 17.034 89.2414 16.842C89.0494 16.638 88.7854 16.464 88.4494 16.32C88.1254 16.164 87.6034 15.954 86.8834 15.69C86.0794 15.414 85.3954 15.132 84.8314 14.844C84.2794 14.556 83.8114 14.166 83.4274 13.674C83.0554 13.17 82.8694 12.552 82.8694 11.82C82.8694 11.1 83.0554 10.47 83.4274 9.93C83.7994 9.39 84.3154 8.976 84.9754 8.688C85.6354 8.4 86.3974 8.256 87.2614 8.256C88.1734 8.256 88.9834 8.418 89.6914 8.742C90.4114 9.066 90.9694 9.522 91.3654 10.11C91.7734 10.686 91.9774 11.358 91.9774 12.126V12.396C91.9774 12.456 91.9534 12.51 91.9054 12.558C91.8694 12.594 91.8214 12.612 91.7614 12.612H89.6914C89.6314 12.612 89.5774 12.594 89.5294 12.558C89.4934 12.51 89.4754 12.456 89.4754 12.396V12.252C89.4754 11.748 89.2654 11.322 88.8454 10.974C88.4374 10.614 87.8734 10.434 87.1534 10.434C86.5894 10.434 86.1454 10.554 85.8214 10.794C85.5094 11.034 85.3534 11.364 85.3534 11.784C85.3534 12.084 85.4434 12.336 85.6234 12.54C85.8154 12.744 86.0914 12.93 86.4514 13.098C86.8234 13.254 87.3934 13.47 88.1614 13.746C89.0134 14.058 89.6794 14.334 90.1594 14.574C90.6514 14.814 91.0894 15.174 91.4734 15.654C91.8694 16.122 92.0674 16.734 92.0674 17.49C92.0674 18.618 91.6534 19.512 90.8254 20.172C89.9974 20.82 88.8754 21.144 87.4594 21.144ZM99.1905 21C99.1305 21 99.0765 20.982 99.0285 20.946C98.9925 20.898 98.9745 20.844 98.9745 20.784V8.616C98.9745 8.556 98.9925 8.508 99.0285 8.472C99.0765 8.424 99.1305 8.4 99.1905 8.4H101.297C101.357 8.4 101.405 8.424 101.441 8.472C101.489 8.508 101.513 8.556 101.513 8.616V20.784C101.513 20.844 101.489 20.898 101.441 20.946C101.405 20.982 101.357 21 101.297 21H99.1905ZM113.261 21.144C112.337 21.144 111.521 20.958 110.813 20.586C110.105 20.214 109.553 19.698 109.157 19.038C108.773 18.366 108.581 17.592 108.581 16.716V12.684C108.581 11.808 108.773 11.034 109.157 10.362C109.553 9.69 110.105 9.174 110.813 8.814C111.521 8.442 112.337 8.256 113.261 8.256C114.173 8.256 114.977 8.436 115.673 8.796C116.381 9.156 116.927 9.648 117.311 10.272C117.707 10.884 117.905 11.568 117.905 12.324V12.45C117.905 12.51 117.881 12.564 117.833 12.612C117.797 12.648 117.749 12.666 117.689 12.666H115.583C115.523 12.666 115.469 12.648 115.421 12.612C115.385 12.564 115.367 12.51 115.367 12.45V12.396C115.367 11.844 115.175 11.382 114.791 11.01C114.407 10.626 113.897 10.434 113.261 10.434C112.613 10.434 112.091 10.638 111.695 11.046C111.311 11.442 111.119 11.964 111.119 12.612V16.788C111.119 17.436 111.329 17.964 111.749 18.372C112.169 18.768 112.703 18.966 113.351 18.966C113.975 18.966 114.473 18.804 114.845 18.48C115.217 18.144 115.403 17.682 115.403 17.094V16.284C115.403 16.224 115.373 16.194 115.313 16.194H113.297C113.237 16.194 113.183 16.176 113.135 16.14C113.099 16.092 113.081 16.038 113.081 15.978V14.322C113.081 14.262 113.099 14.214 113.135 14.178C113.183 14.13 113.237 14.106 113.297 14.106H117.689C117.749 14.106 117.797 14.13 117.833 14.178C117.881 14.214 117.905 14.262 117.905 14.322V16.698C117.905 17.61 117.713 18.402 117.329 19.074C116.945 19.746 116.399 20.262 115.691 20.622C114.995 20.97 114.185 21.144 113.261 21.144ZM132.221 8.616C132.221 8.556 132.239 8.508 132.275 8.472C132.323 8.424 132.377 8.4 132.437 8.4H134.543C134.603 8.4 134.651 8.424 134.687 8.472C134.735 8.508 134.759 8.556 134.759 8.616V20.784C134.759 20.844 134.735 20.898 134.687 20.946C134.651 20.982 134.603 21 134.543 21H132.509C132.389 21 132.305 20.952 132.257 20.856L127.595 13.152C127.571 13.116 127.547 13.104 127.523 13.116C127.499 13.116 127.487 13.14 127.487 13.188L127.523 20.784C127.523 20.844 127.499 20.898 127.451 20.946C127.415 20.982 127.367 21 127.307 21H125.201C125.141 21 125.087 20.982 125.039 20.946C125.003 20.898 124.985 20.844 124.985 20.784V8.616C124.985 8.556 125.003 8.508 125.039 8.472C125.087 8.424 125.141 8.4 125.201 8.4H127.235C127.355 8.4 127.439 8.448 127.487 8.544L132.131 16.212C132.155 16.248 132.179 16.266 132.203 16.266C132.227 16.254 132.239 16.224 132.239 16.176L132.221 8.616Z" fill="white"/>
<rect x="11" y="9" width="29" height="12" rx="6" fill="url(#paint0_linear)"/>
<defs>
<linearGradient id="paint0_linear" x1="11.6527" y1="15" x2="47.6463" y2="15" gradientUnits="userSpaceOnUse">
<stop stop-color="#FF9966"/>
<stop offset="1" stop-color="#FF5E62"/>
</linearGradient>
</defs>
</svg>
