<svg width="232" height="37" viewBox="0 0 232 37" fill="none" xmlns="http://www.w3.org/2000/svg">
<g filter="url(#filter0_d)">
<rect x="5" y="3" width="222" height="27" rx="7" fill="#F27226"/>
<rect x="14" y="15" width="29" height="3" rx="1.5" fill="#F5F7FA"/>
<path d="M64.117 13.726C64.117 13.7727 64.0983 13.8147 64.061 13.852C64.033 13.88 63.9957 13.894 63.949 13.894H59.357C59.3103 13.894 59.287 13.9173 59.287 13.964V16.134C59.287 16.1807 59.3103 16.204 59.357 16.204H62.367C62.4137 16.204 62.451 16.2227 62.479 16.26C62.5163 16.288 62.535 16.3253 62.535 16.372V17.73C62.535 17.7767 62.5163 17.8187 62.479 17.856C62.451 17.884 62.4137 17.898 62.367 17.898H59.357C59.3103 17.898 59.287 17.9213 59.287 17.968V20.236C59.287 20.2827 59.3103 20.306 59.357 20.306H63.949C63.9957 20.306 64.033 20.3247 64.061 20.362C64.0983 20.39 64.117 20.4273 64.117 20.474V21.832C64.117 21.8787 64.0983 21.9207 64.061 21.958C64.033 21.986 63.9957 22 63.949 22H57.481C57.4343 22 57.3923 21.986 57.355 21.958C57.327 21.9207 57.313 21.8787 57.313 21.832V12.368C57.313 12.3213 57.327 12.284 57.355 12.256C57.3923 12.2187 57.4343 12.2 57.481 12.2H63.949C63.9957 12.2 64.033 12.2187 64.061 12.256C64.0983 12.284 64.117 12.3213 64.117 12.368V13.726ZM71.1168 12.368C71.1168 12.3213 71.1308 12.284 71.1588 12.256C71.1961 12.2187 71.2381 12.2 71.2848 12.2H72.9228C72.9694 12.2 73.0068 12.2187 73.0348 12.256C73.0721 12.284 73.0908 12.3213 73.0908 12.368V21.832C73.0908 21.8787 73.0721 21.9207 73.0348 21.958C73.0068 21.986 72.9694 22 72.9228 22H71.3408C71.2474 22 71.1821 21.9627 71.1448 21.888L67.5188 15.896C67.5001 15.868 67.4814 15.8587 67.4628 15.868C67.4441 15.868 67.4348 15.8867 67.4348 15.924L67.4628 21.832C67.4628 21.8787 67.4441 21.9207 67.4068 21.958C67.3788 21.986 67.3414 22 67.2948 22H65.6568C65.6101 22 65.5681 21.986 65.5308 21.958C65.5028 21.9207 65.4888 21.8787 65.4888 21.832V12.368C65.4888 12.3213 65.5028 12.284 65.5308 12.256C65.5681 12.2187 65.6101 12.2 65.6568 12.2H67.2388C67.3321 12.2 67.3974 12.2373 67.4348 12.312L71.0468 18.276C71.0654 18.304 71.0841 18.318 71.1028 18.318C71.1214 18.3087 71.1308 18.2853 71.1308 18.248L71.1168 12.368ZM81.5613 12.2C81.608 12.2 81.6453 12.2187 81.6733 12.256C81.7106 12.284 81.7293 12.3213 81.7293 12.368V13.74C81.7293 13.7867 81.7106 13.8287 81.6733 13.866C81.6453 13.894 81.608 13.908 81.5613 13.908H79.0553C79.0086 13.908 78.9853 13.9313 78.9853 13.978V21.832C78.9853 21.8787 78.9666 21.9207 78.9293 21.958C78.9013 21.986 78.864 22 78.8173 22H77.1793C77.1326 22 77.0906 21.986 77.0533 21.958C77.0253 21.9207 77.0113 21.8787 77.0113 21.832V13.978C77.0113 13.9313 76.988 13.908 76.9413 13.908H74.5053C74.4586 13.908 74.4166 13.894 74.3793 13.866C74.3513 13.8287 74.3373 13.7867 74.3373 13.74V12.368C74.3373 12.3213 74.3513 12.284 74.3793 12.256C74.4166 12.2187 74.4586 12.2 74.5053 12.2H81.5613ZM89.7928 13.726C89.7928 13.7727 89.7741 13.8147 89.7368 13.852C89.7088 13.88 89.6714 13.894 89.6248 13.894H85.0328C84.9861 13.894 84.9628 13.9173 84.9628 13.964V16.134C84.9628 16.1807 84.9861 16.204 85.0328 16.204H88.0428C88.0894 16.204 88.1268 16.2227 88.1548 16.26C88.1921 16.288 88.2108 16.3253 88.2108 16.372V17.73C88.2108 17.7767 88.1921 17.8187 88.1548 17.856C88.1268 17.884 88.0894 17.898 88.0428 17.898H85.0328C84.9861 17.898 84.9628 17.9213 84.9628 17.968V20.236C84.9628 20.2827 84.9861 20.306 85.0328 20.306H89.6248C89.6714 20.306 89.7088 20.3247 89.7368 20.362C89.7741 20.39 89.7928 20.4273 89.7928 20.474V21.832C89.7928 21.8787 89.7741 21.9207 89.7368 21.958C89.7088 21.986 89.6714 22 89.6248 22H83.1568C83.1101 22 83.0681 21.986 83.0308 21.958C83.0028 21.9207 82.9888 21.8787 82.9888 21.832V12.368C82.9888 12.3213 83.0028 12.284 83.0308 12.256C83.0681 12.2187 83.1101 12.2 83.1568 12.2H89.6248C89.6714 12.2 89.7088 12.2187 89.7368 12.256C89.7741 12.284 89.7928 12.3213 89.7928 12.368V13.726ZM96.5405 22C96.4472 22 96.3819 21.958 96.3445 21.874L94.5945 17.996C94.5759 17.9587 94.5479 17.94 94.5105 17.94H93.2085C93.1619 17.94 93.1385 17.9633 93.1385 18.01V21.832C93.1385 21.8787 93.1199 21.9207 93.0825 21.958C93.0545 21.986 93.0172 22 92.9705 22H91.3325C91.2859 22 91.2439 21.986 91.2065 21.958C91.1785 21.9207 91.1645 21.8787 91.1645 21.832V12.368C91.1645 12.3213 91.1785 12.284 91.2065 12.256C91.2439 12.2187 91.2859 12.2 91.3325 12.2H95.3365C95.9339 12.2 96.4565 12.3213 96.9045 12.564C97.3619 12.8067 97.7119 13.152 97.9545 13.6C98.2065 14.048 98.3325 14.566 98.3325 15.154C98.3325 15.7887 98.1739 16.3347 97.8565 16.792C97.5392 17.24 97.0959 17.5573 96.5265 17.744C96.4799 17.7627 96.4659 17.7953 96.4845 17.842L98.3885 21.804C98.4072 21.8413 98.4165 21.8693 98.4165 21.888C98.4165 21.9627 98.3652 22 98.2625 22H96.5405ZM93.2085 13.894C93.1619 13.894 93.1385 13.9173 93.1385 13.964V16.358C93.1385 16.4047 93.1619 16.428 93.2085 16.428H95.0425C95.4345 16.428 95.7519 16.3113 95.9945 16.078C96.2465 15.8447 96.3725 15.5413 96.3725 15.168C96.3725 14.7947 96.2465 14.4913 95.9945 14.258C95.7519 14.0153 95.4345 13.894 95.0425 13.894H93.2085ZM103.81 12.186C104.426 12.186 104.967 12.312 105.434 12.564C105.901 12.816 106.26 13.1753 106.512 13.642C106.773 14.0993 106.904 14.6267 106.904 15.224C106.904 15.812 106.769 16.33 106.498 16.778C106.237 17.226 105.863 17.576 105.378 17.828C104.902 18.0707 104.351 18.192 103.726 18.192H101.738C101.691 18.192 101.668 18.2153 101.668 18.262V21.832C101.668 21.8787 101.649 21.9207 101.612 21.958C101.584 21.986 101.547 22 101.5 22H99.8622C99.8155 22 99.7735 21.986 99.7362 21.958C99.7082 21.9207 99.6942 21.8787 99.6942 21.832V12.354C99.6942 12.3073 99.7082 12.27 99.7362 12.242C99.7735 12.2047 99.8155 12.186 99.8622 12.186H103.81ZM103.516 16.61C103.945 16.61 104.291 16.4887 104.552 16.246C104.813 15.994 104.944 15.6673 104.944 15.266C104.944 14.8553 104.813 14.524 104.552 14.272C104.291 14.02 103.945 13.894 103.516 13.894H101.738C101.691 13.894 101.668 13.9173 101.668 13.964V16.54C101.668 16.5867 101.691 16.61 101.738 16.61H103.516ZM113.494 22C113.4 22 113.335 21.958 113.298 21.874L111.548 17.996C111.529 17.9587 111.501 17.94 111.464 17.94H110.162C110.115 17.94 110.092 17.9633 110.092 18.01V21.832C110.092 21.8787 110.073 21.9207 110.036 21.958C110.008 21.986 109.97 22 109.924 22H108.286C108.239 22 108.197 21.986 108.16 21.958C108.132 21.9207 108.118 21.8787 108.118 21.832V12.368C108.118 12.3213 108.132 12.284 108.16 12.256C108.197 12.2187 108.239 12.2 108.286 12.2H112.29C112.887 12.2 113.41 12.3213 113.858 12.564C114.315 12.8067 114.665 13.152 114.908 13.6C115.16 14.048 115.286 14.566 115.286 15.154C115.286 15.7887 115.127 16.3347 114.81 16.792C114.492 17.24 114.049 17.5573 113.48 17.744C113.433 17.7627 113.419 17.7953 113.438 17.842L115.342 21.804C115.36 21.8413 115.37 21.8693 115.37 21.888C115.37 21.9627 115.318 22 115.216 22H113.494ZM110.162 13.894C110.115 13.894 110.092 13.9173 110.092 13.964V16.358C110.092 16.4047 110.115 16.428 110.162 16.428H111.996C112.388 16.428 112.705 16.3113 112.948 16.078C113.2 15.8447 113.326 15.5413 113.326 15.168C113.326 14.7947 113.2 14.4913 112.948 14.258C112.705 14.0153 112.388 13.894 111.996 13.894H110.162ZM116.885 22C116.839 22 116.797 21.986 116.759 21.958C116.731 21.9207 116.717 21.8787 116.717 21.832V12.368C116.717 12.3213 116.731 12.284 116.759 12.256C116.797 12.2187 116.839 12.2 116.885 12.2H118.523C118.57 12.2 118.607 12.2187 118.635 12.256C118.673 12.284 118.691 12.3213 118.691 12.368V21.832C118.691 21.8787 118.673 21.9207 118.635 21.958C118.607 21.986 118.57 22 118.523 22H116.885ZM123.755 22.112C123.008 22.112 122.355 21.9953 121.795 21.762C121.235 21.5193 120.801 21.1787 120.493 20.74C120.194 20.292 120.045 19.774 120.045 19.186V18.878C120.045 18.8313 120.059 18.794 120.087 18.766C120.124 18.7287 120.166 18.71 120.213 18.71H121.809C121.856 18.71 121.893 18.7287 121.921 18.766C121.958 18.794 121.977 18.8313 121.977 18.878V19.088C121.977 19.4613 122.15 19.7787 122.495 20.04C122.84 20.292 123.307 20.418 123.895 20.418C124.39 20.418 124.758 20.3153 125.001 20.11C125.244 19.8953 125.365 19.634 125.365 19.326C125.365 19.102 125.29 18.9153 125.141 18.766C124.992 18.6073 124.786 18.472 124.525 18.36C124.273 18.2387 123.867 18.0753 123.307 17.87C122.682 17.6553 122.15 17.436 121.711 17.212C121.282 16.988 120.918 16.6847 120.619 16.302C120.33 15.91 120.185 15.4293 120.185 14.86C120.185 14.3 120.33 13.81 120.619 13.39C120.908 12.97 121.31 12.648 121.823 12.424C122.336 12.2 122.929 12.088 123.601 12.088C124.31 12.088 124.94 12.214 125.491 12.466C126.051 12.718 126.485 13.0727 126.793 13.53C127.11 13.978 127.269 14.5007 127.269 15.098V15.308C127.269 15.3547 127.25 15.3967 127.213 15.434C127.185 15.462 127.148 15.476 127.101 15.476H125.491C125.444 15.476 125.402 15.462 125.365 15.434C125.337 15.3967 125.323 15.3547 125.323 15.308V15.196C125.323 14.804 125.16 14.4727 124.833 14.202C124.516 13.922 124.077 13.782 123.517 13.782C123.078 13.782 122.733 13.8753 122.481 14.062C122.238 14.2487 122.117 14.5053 122.117 14.832C122.117 15.0653 122.187 15.2613 122.327 15.42C122.476 15.5787 122.691 15.7233 122.971 15.854C123.26 15.9753 123.704 16.1433 124.301 16.358C124.964 16.6007 125.482 16.8153 125.855 17.002C126.238 17.1887 126.578 17.4687 126.877 17.842C127.185 18.206 127.339 18.682 127.339 19.27C127.339 20.1473 127.017 20.8427 126.373 21.356C125.729 21.86 124.856 22.112 123.755 22.112ZM135.525 13.726C135.525 13.7727 135.507 13.8147 135.469 13.852C135.441 13.88 135.404 13.894 135.357 13.894H130.765C130.719 13.894 130.695 13.9173 130.695 13.964V16.134C130.695 16.1807 130.719 16.204 130.765 16.204H133.775C133.822 16.204 133.859 16.2227 133.887 16.26C133.925 16.288 133.943 16.3253 133.943 16.372V17.73C133.943 17.7767 133.925 17.8187 133.887 17.856C133.859 17.884 133.822 17.898 133.775 17.898H130.765C130.719 17.898 130.695 17.9213 130.695 17.968V20.236C130.695 20.2827 130.719 20.306 130.765 20.306H135.357C135.404 20.306 135.441 20.3247 135.469 20.362C135.507 20.39 135.525 20.4273 135.525 20.474V21.832C135.525 21.8787 135.507 21.9207 135.469 21.958C135.441 21.986 135.404 22 135.357 22H128.889C128.843 22 128.801 21.986 128.763 21.958C128.735 21.9207 128.721 21.8787 128.721 21.832V12.368C128.721 12.3213 128.735 12.284 128.763 12.256C128.801 12.2187 128.843 12.2 128.889 12.2H135.357C135.404 12.2 135.441 12.2187 135.469 12.256C135.507 12.284 135.525 12.3213 135.525 12.368V13.726ZM143.256 22.112C142.537 22.112 141.902 21.972 141.352 21.692C140.81 21.412 140.386 21.02 140.078 20.516C139.779 20.0027 139.63 19.4147 139.63 18.752V12.368C139.63 12.3213 139.644 12.284 139.672 12.256C139.709 12.2187 139.751 12.2 139.798 12.2H141.436C141.482 12.2 141.52 12.2187 141.548 12.256C141.585 12.284 141.604 12.3213 141.604 12.368V18.766C141.604 19.2607 141.753 19.662 142.052 19.97C142.36 20.2687 142.761 20.418 143.256 20.418C143.75 20.418 144.147 20.2687 144.446 19.97C144.754 19.662 144.908 19.2607 144.908 18.766V12.368C144.908 12.3213 144.922 12.284 144.95 12.256C144.987 12.2187 145.029 12.2 145.076 12.2H146.714C146.76 12.2 146.798 12.2187 146.826 12.256C146.863 12.284 146.882 12.3213 146.882 12.368V18.752C146.882 19.4147 146.728 20.0027 146.42 20.516C146.121 21.02 145.696 21.412 145.146 21.692C144.604 21.972 143.974 22.112 143.256 22.112ZM148.672 22C148.626 22 148.584 21.986 148.546 21.958C148.518 21.9207 148.504 21.8787 148.504 21.832V12.368C148.504 12.3213 148.518 12.284 148.546 12.256C148.584 12.2187 148.626 12.2 148.672 12.2H150.31C150.357 12.2 150.394 12.2187 150.422 12.256C150.46 12.284 150.478 12.3213 150.478 12.368V21.832C150.478 21.8787 150.46 21.9207 150.422 21.958C150.394 21.986 150.357 22 150.31 22H148.672ZM155.153 22C155.106 22 155.064 21.986 155.027 21.958C154.999 21.9207 154.985 21.8787 154.985 21.832V12.368C154.985 12.3213 154.999 12.284 155.027 12.256C155.064 12.2187 155.106 12.2 155.153 12.2H158.653C159.353 12.2 159.964 12.326 160.487 12.578C161.019 12.8207 161.43 13.166 161.719 13.614C162.008 14.062 162.153 14.58 162.153 15.168V19.032C162.153 19.62 162.008 20.138 161.719 20.586C161.43 21.034 161.019 21.384 160.487 21.636C159.964 21.8787 159.353 22 158.653 22H155.153ZM156.959 20.236C156.959 20.2827 156.982 20.306 157.029 20.306H158.723C159.152 20.306 159.498 20.1613 159.759 19.872C160.03 19.5827 160.17 19.1953 160.179 18.71V15.49C160.179 15.0047 160.044 14.6173 159.773 14.328C159.512 14.0387 159.157 13.894 158.709 13.894H157.029C156.982 13.894 156.959 13.9173 156.959 13.964V20.236ZM170.443 13.726C170.443 13.7727 170.424 13.8147 170.387 13.852C170.359 13.88 170.322 13.894 170.275 13.894H165.683C165.636 13.894 165.613 13.9173 165.613 13.964V16.134C165.613 16.1807 165.636 16.204 165.683 16.204H168.693C168.74 16.204 168.777 16.2227 168.805 16.26C168.842 16.288 168.861 16.3253 168.861 16.372V17.73C168.861 17.7767 168.842 17.8187 168.805 17.856C168.777 17.884 168.74 17.898 168.693 17.898H165.683C165.636 17.898 165.613 17.9213 165.613 17.968V20.236C165.613 20.2827 165.636 20.306 165.683 20.306H170.275C170.322 20.306 170.359 20.3247 170.387 20.362C170.424 20.39 170.443 20.4273 170.443 20.474V21.832C170.443 21.8787 170.424 21.9207 170.387 21.958C170.359 21.986 170.322 22 170.275 22H163.807C163.76 22 163.718 21.986 163.681 21.958C163.653 21.9207 163.639 21.8787 163.639 21.832V12.368C163.639 12.3213 163.653 12.284 163.681 12.256C163.718 12.2187 163.76 12.2 163.807 12.2H170.275C170.322 12.2 170.359 12.2187 170.387 12.256C170.424 12.284 170.443 12.3213 170.443 12.368V13.726ZM175.175 22.112C174.428 22.112 173.775 21.9953 173.215 21.762C172.655 21.5193 172.221 21.1787 171.913 20.74C171.614 20.292 171.465 19.774 171.465 19.186V18.878C171.465 18.8313 171.479 18.794 171.507 18.766C171.544 18.7287 171.586 18.71 171.633 18.71H173.229C173.276 18.71 173.313 18.7287 173.341 18.766C173.378 18.794 173.397 18.8313 173.397 18.878V19.088C173.397 19.4613 173.57 19.7787 173.915 20.04C174.26 20.292 174.727 20.418 175.315 20.418C175.81 20.418 176.178 20.3153 176.421 20.11C176.664 19.8953 176.785 19.634 176.785 19.326C176.785 19.102 176.71 18.9153 176.561 18.766C176.412 18.6073 176.206 18.472 175.945 18.36C175.693 18.2387 175.287 18.0753 174.727 17.87C174.102 17.6553 173.57 17.436 173.131 17.212C172.702 16.988 172.338 16.6847 172.039 16.302C171.75 15.91 171.605 15.4293 171.605 14.86C171.605 14.3 171.75 13.81 172.039 13.39C172.328 12.97 172.73 12.648 173.243 12.424C173.756 12.2 174.349 12.088 175.021 12.088C175.73 12.088 176.36 12.214 176.911 12.466C177.471 12.718 177.905 13.0727 178.213 13.53C178.53 13.978 178.689 14.5007 178.689 15.098V15.308C178.689 15.3547 178.67 15.3967 178.633 15.434C178.605 15.462 178.568 15.476 178.521 15.476H176.911C176.864 15.476 176.822 15.462 176.785 15.434C176.757 15.3967 176.743 15.3547 176.743 15.308V15.196C176.743 14.804 176.58 14.4727 176.253 14.202C175.936 13.922 175.497 13.782 174.937 13.782C174.498 13.782 174.153 13.8753 173.901 14.062C173.658 14.2487 173.537 14.5053 173.537 14.832C173.537 15.0653 173.607 15.2613 173.747 15.42C173.896 15.5787 174.111 15.7233 174.391 15.854C174.68 15.9753 175.124 16.1433 175.721 16.358C176.384 16.6007 176.902 16.8153 177.275 17.002C177.658 17.1887 177.998 17.4687 178.297 17.842C178.605 18.206 178.759 18.682 178.759 19.27C178.759 20.1473 178.437 20.8427 177.793 21.356C177.149 21.86 176.276 22.112 175.175 22.112ZM180.309 22C180.262 22 180.22 21.986 180.183 21.958C180.155 21.9207 180.141 21.8787 180.141 21.832V12.368C180.141 12.3213 180.155 12.284 180.183 12.256C180.22 12.2187 180.262 12.2 180.309 12.2H181.947C181.994 12.2 182.031 12.2187 182.059 12.256C182.096 12.284 182.115 12.3213 182.115 12.368V21.832C182.115 21.8787 182.096 21.9207 182.059 21.958C182.031 21.986 181.994 22 181.947 22H180.309ZM187.263 22.112C186.544 22.112 185.91 21.9673 185.359 21.678C184.808 21.3887 184.379 20.9873 184.071 20.474C183.772 19.9513 183.623 19.3493 183.623 18.668V15.532C183.623 14.8507 183.772 14.2487 184.071 13.726C184.379 13.2033 184.808 12.802 185.359 12.522C185.91 12.2327 186.544 12.088 187.263 12.088C187.972 12.088 188.598 12.228 189.139 12.508C189.69 12.788 190.114 13.1707 190.413 13.656C190.721 14.132 190.875 14.664 190.875 15.252V15.35C190.875 15.3967 190.856 15.4387 190.819 15.476C190.791 15.504 190.754 15.518 190.707 15.518H189.069C189.022 15.518 188.98 15.504 188.943 15.476C188.915 15.4387 188.901 15.3967 188.901 15.35V15.308C188.901 14.8787 188.752 14.5193 188.453 14.23C188.154 13.9313 187.758 13.782 187.263 13.782C186.759 13.782 186.353 13.9407 186.045 14.258C185.746 14.566 185.597 14.972 185.597 15.476V18.724C185.597 19.228 185.76 19.6387 186.087 19.956C186.414 20.264 186.829 20.418 187.333 20.418C187.818 20.418 188.206 20.292 188.495 20.04C188.784 19.7787 188.929 19.4193 188.929 18.962V18.332C188.929 18.2853 188.906 18.262 188.859 18.262H187.291C187.244 18.262 187.202 18.248 187.165 18.22C187.137 18.1827 187.123 18.1407 187.123 18.094V16.806C187.123 16.7593 187.137 16.722 187.165 16.694C187.202 16.6567 187.244 16.638 187.291 16.638H190.707C190.754 16.638 190.791 16.6567 190.819 16.694C190.856 16.722 190.875 16.7593 190.875 16.806V18.654C190.875 19.3633 190.726 19.9793 190.427 20.502C190.128 21.0247 189.704 21.426 189.153 21.706C188.612 21.9767 187.982 22.112 187.263 22.112ZM198.019 12.368C198.019 12.3213 198.033 12.284 198.061 12.256C198.098 12.2187 198.14 12.2 198.187 12.2H199.825C199.872 12.2 199.909 12.2187 199.937 12.256C199.974 12.284 199.993 12.3213 199.993 12.368V21.832C199.993 21.8787 199.974 21.9207 199.937 21.958C199.909 21.986 199.872 22 199.825 22H198.243C198.15 22 198.084 21.9627 198.047 21.888L194.421 15.896C194.402 15.868 194.384 15.8587 194.365 15.868C194.346 15.868 194.337 15.8867 194.337 15.924L194.365 21.832C194.365 21.8787 194.346 21.9207 194.309 21.958C194.281 21.986 194.244 22 194.197 22H192.559C192.512 22 192.47 21.986 192.433 21.958C192.405 21.9207 192.391 21.8787 192.391 21.832V12.368C192.391 12.3213 192.405 12.284 192.433 12.256C192.47 12.2187 192.512 12.2 192.559 12.2H194.141C194.234 12.2 194.3 12.2373 194.337 12.312L197.949 18.276C197.968 18.304 197.986 18.318 198.005 18.318C198.024 18.3087 198.033 18.2853 198.033 18.248L198.019 12.368ZM208.424 13.726C208.424 13.7727 208.405 13.8147 208.368 13.852C208.34 13.88 208.302 13.894 208.256 13.894H203.664C203.617 13.894 203.594 13.9173 203.594 13.964V16.134C203.594 16.1807 203.617 16.204 203.664 16.204H206.674C206.72 16.204 206.758 16.2227 206.786 16.26C206.823 16.288 206.842 16.3253 206.842 16.372V17.73C206.842 17.7767 206.823 17.8187 206.786 17.856C206.758 17.884 206.72 17.898 206.674 17.898H203.664C203.617 17.898 203.594 17.9213 203.594 17.968V20.236C203.594 20.2827 203.617 20.306 203.664 20.306H208.256C208.302 20.306 208.34 20.3247 208.368 20.362C208.405 20.39 208.424 20.4273 208.424 20.474V21.832C208.424 21.8787 208.405 21.9207 208.368 21.958C208.34 21.986 208.302 22 208.256 22H201.788C201.741 22 201.699 21.986 201.662 21.958C201.634 21.9207 201.62 21.8787 201.62 21.832V12.368C201.62 12.3213 201.634 12.284 201.662 12.256C201.699 12.2187 201.741 12.2 201.788 12.2H208.256C208.302 12.2 208.34 12.2187 208.368 12.256C208.405 12.284 208.424 12.3213 208.424 12.368V13.726ZM215.171 22C215.078 22 215.013 21.958 214.975 21.874L213.225 17.996C213.207 17.9587 213.179 17.94 213.141 17.94H211.839C211.793 17.94 211.769 17.9633 211.769 18.01V21.832C211.769 21.8787 211.751 21.9207 211.713 21.958C211.685 21.986 211.648 22 211.601 22H209.963C209.917 22 209.875 21.986 209.837 21.958C209.809 21.9207 209.795 21.8787 209.795 21.832V12.368C209.795 12.3213 209.809 12.284 209.837 12.256C209.875 12.2187 209.917 12.2 209.963 12.2H213.967C214.565 12.2 215.087 12.3213 215.535 12.564C215.993 12.8067 216.343 13.152 216.585 13.6C216.837 14.048 216.963 14.566 216.963 15.154C216.963 15.7887 216.805 16.3347 216.487 16.792C216.17 17.24 215.727 17.5573 215.157 17.744C215.111 17.7627 215.097 17.7953 215.115 17.842L217.019 21.804C217.038 21.8413 217.047 21.8693 217.047 21.888C217.047 21.9627 216.996 22 216.893 22H215.171ZM211.839 13.894C211.793 13.894 211.769 13.9173 211.769 13.964V16.358C211.769 16.4047 211.793 16.428 211.839 16.428H213.673C214.065 16.428 214.383 16.3113 214.625 16.078C214.877 15.8447 215.003 15.5413 215.003 15.168C215.003 14.7947 214.877 14.4913 214.625 14.258C214.383 14.0153 214.065 13.894 213.673 13.894H211.839Z" fill="#F5F7FA"/>
<rect x="5" y="3" width="222" height="27" rx="7" stroke="#CBD2D9" stroke-width="2"/>
</g>
<defs>
<filter id="filter0_d" x="0" y="0" width="232" height="37" filterUnits="userSpaceOnUse" color-interpolation-filters="sRGB">
<feFlood flood-opacity="0" result="BackgroundImageFix"/>
<feColorMatrix in="SourceAlpha" type="matrix" values="0 0 0 0 0 0 0 0 0 0 0 0 0 0 0 0 0 0 127 0"/>
<feOffset dy="2"/>
<feGaussianBlur stdDeviation="2"/>
<feColorMatrix type="matrix" values="0 0 0 0 0 0 0 0 0 0 0 0 0 0 0 0 0 0 0.25 0"/>
<feBlend mode="normal" in2="BackgroundImageFix" result="effect1_dropShadow"/>
<feBlend mode="normal" in="SourceGraphic" in2="effect1_dropShadow" result="shape"/>
</filter>
</defs>
</svg>
