<svg width="217" height="37" viewBox="0 0 217 37" fill="none" xmlns="http://www.w3.org/2000/svg">
<g filter="url(#filter0_d)">
<rect x="5" y="3" width="207" height="27" rx="7" fill="#36B37E"/>
<rect x="14" y="15" width="29" height="3" rx="1.5" fill="#F5F7FA"/>
<path d="M63.6782 13.726C63.6782 13.7727 63.6595 13.8147 63.6222 13.852C63.5942 13.88 63.5568 13.894 63.5102 13.894H58.9322C58.8855 13.894 58.8622 13.9173 58.8622 13.964V16.134C58.8622 16.1807 58.8855 16.204 58.9322 16.204H61.9422C61.9888 16.204 62.0262 16.2227 62.0542 16.26C62.0915 16.288 62.1102 16.3253 62.1102 16.372V17.73C62.1102 17.7767 62.0915 17.8187 62.0542 17.856C62.0262 17.884 61.9888 17.898 61.9422 17.898H58.9322C58.8855 17.898 58.8622 17.9213 58.8622 17.968V21.832C58.8622 21.8787 58.8435 21.9207 58.8062 21.958C58.7782 21.986 58.7408 22 58.6942 22H57.0562C57.0095 22 56.9675 21.986 56.9302 21.958C56.9022 21.9207 56.8882 21.8787 56.8882 21.832V12.368C56.8882 12.3213 56.9022 12.284 56.9302 12.256C56.9675 12.2187 57.0095 12.2 57.0562 12.2H63.5102C63.5568 12.2 63.5942 12.2187 63.6222 12.256C63.6595 12.284 63.6782 12.3213 63.6782 12.368V13.726ZM70.0982 22C70.0048 22 69.9395 21.958 69.9022 21.874L68.1522 17.996C68.1335 17.9587 68.1055 17.94 68.0682 17.94H66.7662C66.7195 17.94 66.6962 17.9633 66.6962 18.01V21.832C66.6962 21.8787 66.6775 21.9207 66.6402 21.958C66.6122 21.986 66.5748 22 66.5282 22H64.8902C64.8435 22 64.8015 21.986 64.7642 21.958C64.7362 21.9207 64.7222 21.8787 64.7222 21.832V12.368C64.7222 12.3213 64.7362 12.284 64.7642 12.256C64.8015 12.2187 64.8435 12.2 64.8902 12.2H68.8942C69.4915 12.2 70.0142 12.3213 70.4622 12.564C70.9195 12.8067 71.2695 13.152 71.5122 13.6C71.7642 14.048 71.8902 14.566 71.8902 15.154C71.8902 15.7887 71.7315 16.3347 71.4142 16.792C71.0968 17.24 70.6535 17.5573 70.0842 17.744C70.0375 17.7627 70.0235 17.7953 70.0422 17.842L71.9462 21.804C71.9648 21.8413 71.9742 21.8693 71.9742 21.888C71.9742 21.9627 71.9228 22 71.8202 22H70.0982ZM66.7662 13.894C66.7195 13.894 66.6962 13.9173 66.6962 13.964V16.358C66.6962 16.4047 66.7195 16.428 66.7662 16.428H68.6002C68.9922 16.428 69.3095 16.3113 69.5522 16.078C69.8042 15.8447 69.9302 15.5413 69.9302 15.168C69.9302 14.7947 69.8042 14.4913 69.5522 14.258C69.3095 14.0153 68.9922 13.894 68.6002 13.894H66.7662ZM76.8078 22.154C76.0798 22.154 75.4358 22.0047 74.8758 21.706C74.3251 21.4073 73.8958 20.992 73.5878 20.46C73.2798 19.9187 73.1258 19.298 73.1258 18.598V15.602C73.1258 14.9113 73.2798 14.3 73.5878 13.768C73.8958 13.236 74.3251 12.8253 74.8758 12.536C75.4358 12.2373 76.0798 12.088 76.8078 12.088C77.5451 12.088 78.1891 12.2373 78.7398 12.536C79.2998 12.8253 79.7338 13.236 80.0418 13.768C80.3498 14.3 80.5038 14.9113 80.5038 15.602V18.598C80.5038 19.298 80.3498 19.9187 80.0418 20.46C79.7338 21.0013 79.2998 21.4213 78.7398 21.72C78.1891 22.0093 77.5451 22.154 76.8078 22.154ZM76.8078 20.46C77.3211 20.46 77.7364 20.2967 78.0538 19.97C78.3711 19.6433 78.5298 19.2093 78.5298 18.668V15.588C78.5298 15.0467 78.3711 14.6127 78.0538 14.286C77.7458 13.95 77.3304 13.782 76.8078 13.782C76.2944 13.782 75.8791 13.95 75.5618 14.286C75.2538 14.6127 75.0998 15.0467 75.0998 15.588V18.668C75.0998 19.2093 75.2538 19.6433 75.5618 19.97C75.8791 20.2967 76.2944 20.46 76.8078 20.46ZM87.6451 12.368C87.6451 12.3213 87.6591 12.284 87.6871 12.256C87.7244 12.2187 87.7664 12.2 87.8131 12.2H89.4511C89.4978 12.2 89.5351 12.2187 89.5631 12.256C89.6004 12.284 89.6191 12.3213 89.6191 12.368V21.832C89.6191 21.8787 89.6004 21.9207 89.5631 21.958C89.5351 21.986 89.4978 22 89.4511 22H87.8691C87.7758 22 87.7104 21.9627 87.6731 21.888L84.0471 15.896C84.0284 15.868 84.0098 15.8587 83.9911 15.868C83.9724 15.868 83.9631 15.8867 83.9631 15.924L83.9911 21.832C83.9911 21.8787 83.9724 21.9207 83.9351 21.958C83.9071 21.986 83.8698 22 83.8231 22H82.1851C82.1384 22 82.0964 21.986 82.0591 21.958C82.0311 21.9207 82.0171 21.8787 82.0171 21.832V12.368C82.0171 12.3213 82.0311 12.284 82.0591 12.256C82.0964 12.2187 82.1384 12.2 82.1851 12.2H83.7671C83.8604 12.2 83.9258 12.2373 83.9631 12.312L87.5751 18.276C87.5938 18.304 87.6124 18.318 87.6311 18.318C87.6498 18.3087 87.6591 18.2853 87.6591 18.248L87.6451 12.368ZM98.0896 12.2C98.1363 12.2 98.1736 12.2187 98.2016 12.256C98.239 12.284 98.2576 12.3213 98.2576 12.368V13.74C98.2576 13.7867 98.239 13.8287 98.2016 13.866C98.1736 13.894 98.1363 13.908 98.0896 13.908H95.5836C95.537 13.908 95.5136 13.9313 95.5136 13.978V21.832C95.5136 21.8787 95.495 21.9207 95.4576 21.958C95.4296 21.986 95.3923 22 95.3456 22H93.7076C93.661 22 93.619 21.986 93.5816 21.958C93.5536 21.9207 93.5396 21.8787 93.5396 21.832V13.978C93.5396 13.9313 93.5163 13.908 93.4696 13.908H91.0336C90.987 13.908 90.945 13.894 90.9076 13.866C90.8796 13.8287 90.8656 13.7867 90.8656 13.74V12.368C90.8656 12.3213 90.8796 12.284 90.9076 12.256C90.945 12.2187 90.987 12.2 91.0336 12.2H98.0896ZM106.321 13.726C106.321 13.7727 106.302 13.8147 106.265 13.852C106.237 13.88 106.2 13.894 106.153 13.894H101.561C101.514 13.894 101.491 13.9173 101.491 13.964V16.134C101.491 16.1807 101.514 16.204 101.561 16.204H104.571C104.618 16.204 104.655 16.2227 104.683 16.26C104.72 16.288 104.739 16.3253 104.739 16.372V17.73C104.739 17.7767 104.72 17.8187 104.683 17.856C104.655 17.884 104.618 17.898 104.571 17.898H101.561C101.514 17.898 101.491 17.9213 101.491 17.968V20.236C101.491 20.2827 101.514 20.306 101.561 20.306H106.153C106.2 20.306 106.237 20.3247 106.265 20.362C106.302 20.39 106.321 20.4273 106.321 20.474V21.832C106.321 21.8787 106.302 21.9207 106.265 21.958C106.237 21.986 106.2 22 106.153 22H99.6851C99.6384 22 99.5964 21.986 99.5591 21.958C99.5311 21.9207 99.5171 21.8787 99.5171 21.832V12.368C99.5171 12.3213 99.5311 12.284 99.5591 12.256C99.5964 12.2187 99.6384 12.2 99.6851 12.2H106.153C106.2 12.2 106.237 12.2187 106.265 12.256C106.302 12.284 106.321 12.3213 106.321 12.368V13.726ZM113.321 12.368C113.321 12.3213 113.335 12.284 113.363 12.256C113.4 12.2187 113.442 12.2 113.489 12.2H115.127C115.174 12.2 115.211 12.2187 115.239 12.256C115.276 12.284 115.295 12.3213 115.295 12.368V21.832C115.295 21.8787 115.276 21.9207 115.239 21.958C115.211 21.986 115.174 22 115.127 22H113.545C113.452 22 113.386 21.9627 113.349 21.888L109.723 15.896C109.704 15.868 109.686 15.8587 109.667 15.868C109.648 15.868 109.639 15.8867 109.639 15.924L109.667 21.832C109.667 21.8787 109.648 21.9207 109.611 21.958C109.583 21.986 109.546 22 109.499 22H107.861C107.814 22 107.772 21.986 107.735 21.958C107.707 21.9207 107.693 21.8787 107.693 21.832V12.368C107.693 12.3213 107.707 12.284 107.735 12.256C107.772 12.2187 107.814 12.2 107.861 12.2H109.443C109.536 12.2 109.602 12.2373 109.639 12.312L113.251 18.276C113.27 18.304 113.288 18.318 113.307 18.318C113.326 18.3087 113.335 18.2853 113.335 18.248L113.321 12.368ZM117.089 22C117.043 22 117.001 21.986 116.963 21.958C116.935 21.9207 116.921 21.8787 116.921 21.832V12.368C116.921 12.3213 116.935 12.284 116.963 12.256C117.001 12.2187 117.043 12.2 117.089 12.2H120.589C121.289 12.2 121.901 12.326 122.423 12.578C122.955 12.8207 123.366 13.166 123.655 13.614C123.945 14.062 124.089 14.58 124.089 15.168V19.032C124.089 19.62 123.945 20.138 123.655 20.586C123.366 21.034 122.955 21.384 122.423 21.636C121.901 21.8787 121.289 22 120.589 22H117.089ZM118.895 20.236C118.895 20.2827 118.919 20.306 118.965 20.306H120.659C121.089 20.306 121.434 20.1613 121.695 19.872C121.966 19.5827 122.106 19.1953 122.115 18.71V15.49C122.115 15.0047 121.98 14.6173 121.709 14.328C121.448 14.0387 121.093 13.894 120.645 13.894H118.965C118.919 13.894 118.895 13.9173 118.895 13.964V20.236ZM128.546 22C128.5 22 128.458 21.986 128.42 21.958C128.392 21.9207 128.378 21.8787 128.378 21.832V12.368C128.378 12.3213 128.392 12.284 128.42 12.256C128.458 12.2187 128.5 12.2 128.546 12.2H132.046C132.746 12.2 133.358 12.326 133.88 12.578C134.412 12.8207 134.823 13.166 135.112 13.614C135.402 14.062 135.546 14.58 135.546 15.168V19.032C135.546 19.62 135.402 20.138 135.112 20.586C134.823 21.034 134.412 21.384 133.88 21.636C133.358 21.8787 132.746 22 132.046 22H128.546ZM130.352 20.236C130.352 20.2827 130.376 20.306 130.422 20.306H132.116C132.546 20.306 132.891 20.1613 133.152 19.872C133.423 19.5827 133.563 19.1953 133.572 18.71V15.49C133.572 15.0047 133.437 14.6173 133.166 14.328C132.905 14.0387 132.55 13.894 132.102 13.894H130.422C130.376 13.894 130.352 13.9173 130.352 13.964V20.236ZM143.837 13.726C143.837 13.7727 143.818 13.8147 143.781 13.852C143.753 13.88 143.715 13.894 143.669 13.894H139.077C139.03 13.894 139.007 13.9173 139.007 13.964V16.134C139.007 16.1807 139.03 16.204 139.077 16.204H142.087C142.133 16.204 142.171 16.2227 142.199 16.26C142.236 16.288 142.255 16.3253 142.255 16.372V17.73C142.255 17.7767 142.236 17.8187 142.199 17.856C142.171 17.884 142.133 17.898 142.087 17.898H139.077C139.03 17.898 139.007 17.9213 139.007 17.968V20.236C139.007 20.2827 139.03 20.306 139.077 20.306H143.669C143.715 20.306 143.753 20.3247 143.781 20.362C143.818 20.39 143.837 20.4273 143.837 20.474V21.832C143.837 21.8787 143.818 21.9207 143.781 21.958C143.753 21.986 143.715 22 143.669 22H137.201C137.154 22 137.112 21.986 137.075 21.958C137.047 21.9207 137.033 21.8787 137.033 21.832V12.368C137.033 12.3213 137.047 12.284 137.075 12.256C137.112 12.2187 137.154 12.2 137.201 12.2H143.669C143.715 12.2 143.753 12.2187 143.781 12.256C143.818 12.284 143.837 12.3213 143.837 12.368V13.726ZM147.895 22C147.801 22 147.741 21.9533 147.713 21.86L144.829 12.396L144.815 12.34C144.815 12.2467 144.866 12.2 144.969 12.2H146.733C146.835 12.2 146.901 12.2467 146.929 12.34L148.791 19.172C148.8 19.2 148.814 19.214 148.833 19.214C148.851 19.214 148.865 19.2 148.875 19.172L150.709 12.34C150.737 12.2467 150.802 12.2 150.905 12.2H152.627C152.683 12.2 152.725 12.2187 152.753 12.256C152.781 12.2933 152.785 12.34 152.767 12.396L149.841 21.86C149.813 21.9533 149.752 22 149.659 22H147.895ZM160.721 13.726C160.721 13.7727 160.703 13.8147 160.665 13.852C160.637 13.88 160.6 13.894 160.553 13.894H155.961C155.915 13.894 155.891 13.9173 155.891 13.964V16.134C155.891 16.1807 155.915 16.204 155.961 16.204H158.971C159.018 16.204 159.055 16.2227 159.083 16.26C159.121 16.288 159.139 16.3253 159.139 16.372V17.73C159.139 17.7767 159.121 17.8187 159.083 17.856C159.055 17.884 159.018 17.898 158.971 17.898H155.961C155.915 17.898 155.891 17.9213 155.891 17.968V20.236C155.891 20.2827 155.915 20.306 155.961 20.306H160.553C160.6 20.306 160.637 20.3247 160.665 20.362C160.703 20.39 160.721 20.4273 160.721 20.474V21.832C160.721 21.8787 160.703 21.9207 160.665 21.958C160.637 21.986 160.6 22 160.553 22H154.085C154.039 22 153.997 21.986 153.959 21.958C153.931 21.9207 153.917 21.8787 153.917 21.832V12.368C153.917 12.3213 153.931 12.284 153.959 12.256C153.997 12.2187 154.039 12.2 154.085 12.2H160.553C160.6 12.2 160.637 12.2187 160.665 12.256C160.703 12.284 160.721 12.3213 160.721 12.368V13.726ZM162.261 22C162.215 22 162.173 21.986 162.135 21.958C162.107 21.9207 162.093 21.8787 162.093 21.832V12.368C162.093 12.3213 162.107 12.284 162.135 12.256C162.173 12.2187 162.215 12.2 162.261 12.2H163.899C163.946 12.2 163.983 12.2187 164.011 12.256C164.049 12.284 164.067 12.3213 164.067 12.368V20.236C164.067 20.2827 164.091 20.306 164.137 20.306H168.715C168.762 20.306 168.799 20.3247 168.827 20.362C168.865 20.39 168.883 20.4273 168.883 20.474V21.832C168.883 21.8787 168.865 21.9207 168.827 21.958C168.799 21.986 168.762 22 168.715 22H162.261ZM173.482 22.154C172.754 22.154 172.11 22.0047 171.55 21.706C170.999 21.4073 170.57 20.992 170.262 20.46C169.954 19.9187 169.8 19.298 169.8 18.598V15.602C169.8 14.9113 169.954 14.3 170.262 13.768C170.57 13.236 170.999 12.8253 171.55 12.536C172.11 12.2373 172.754 12.088 173.482 12.088C174.219 12.088 174.863 12.2373 175.414 12.536C175.974 12.8253 176.408 13.236 176.716 13.768C177.024 14.3 177.178 14.9113 177.178 15.602V18.598C177.178 19.298 177.024 19.9187 176.716 20.46C176.408 21.0013 175.974 21.4213 175.414 21.72C174.863 22.0093 174.219 22.154 173.482 22.154ZM173.482 20.46C173.995 20.46 174.41 20.2967 174.728 19.97C175.045 19.6433 175.204 19.2093 175.204 18.668V15.588C175.204 15.0467 175.045 14.6127 174.728 14.286C174.42 13.95 174.004 13.782 173.482 13.782C172.968 13.782 172.553 13.95 172.236 14.286C171.928 14.6127 171.774 15.0467 171.774 15.588V18.668C171.774 19.2093 171.928 19.6433 172.236 19.97C172.553 20.2967 172.968 20.46 173.482 20.46ZM182.737 12.186C183.353 12.186 183.894 12.312 184.361 12.564C184.828 12.816 185.187 13.1753 185.439 13.642C185.7 14.0993 185.831 14.6267 185.831 15.224C185.831 15.812 185.696 16.33 185.425 16.778C185.164 17.226 184.79 17.576 184.305 17.828C183.829 18.0707 183.278 18.192 182.653 18.192H180.665C180.618 18.192 180.595 18.2153 180.595 18.262V21.832C180.595 21.8787 180.576 21.9207 180.539 21.958C180.511 21.986 180.474 22 180.427 22H178.789C178.742 22 178.7 21.986 178.663 21.958C178.635 21.9207 178.621 21.8787 178.621 21.832V12.354C178.621 12.3073 178.635 12.27 178.663 12.242C178.7 12.2047 178.742 12.186 178.789 12.186H182.737ZM182.443 16.61C182.872 16.61 183.218 16.4887 183.479 16.246C183.74 15.994 183.871 15.6673 183.871 15.266C183.871 14.8553 183.74 14.524 183.479 14.272C183.218 14.02 182.872 13.894 182.443 13.894H180.665C180.618 13.894 180.595 13.9173 180.595 13.964V16.54C180.595 16.5867 180.618 16.61 180.665 16.61H182.443ZM193.848 13.726C193.848 13.7727 193.83 13.8147 193.792 13.852C193.764 13.88 193.727 13.894 193.68 13.894H189.088C189.042 13.894 189.018 13.9173 189.018 13.964V16.134C189.018 16.1807 189.042 16.204 189.088 16.204H192.098C192.145 16.204 192.182 16.2227 192.21 16.26C192.248 16.288 192.266 16.3253 192.266 16.372V17.73C192.266 17.7767 192.248 17.8187 192.21 17.856C192.182 17.884 192.145 17.898 192.098 17.898H189.088C189.042 17.898 189.018 17.9213 189.018 17.968V20.236C189.018 20.2827 189.042 20.306 189.088 20.306H193.68C193.727 20.306 193.764 20.3247 193.792 20.362C193.83 20.39 193.848 20.4273 193.848 20.474V21.832C193.848 21.8787 193.83 21.9207 193.792 21.958C193.764 21.986 193.727 22 193.68 22H187.212C187.166 22 187.124 21.986 187.086 21.958C187.058 21.9207 187.044 21.8787 187.044 21.832V12.368C187.044 12.3213 187.058 12.284 187.086 12.256C187.124 12.2187 187.166 12.2 187.212 12.2H193.68C193.727 12.2 193.764 12.2187 193.792 12.256C193.83 12.284 193.848 12.3213 193.848 12.368V13.726ZM200.596 22C200.503 22 200.438 21.958 200.4 21.874L198.65 17.996C198.632 17.9587 198.604 17.94 198.566 17.94H197.264C197.218 17.94 197.194 17.9633 197.194 18.01V21.832C197.194 21.8787 197.176 21.9207 197.138 21.958C197.11 21.986 197.073 22 197.026 22H195.388C195.342 22 195.3 21.986 195.262 21.958C195.234 21.9207 195.22 21.8787 195.22 21.832V12.368C195.22 12.3213 195.234 12.284 195.262 12.256C195.3 12.2187 195.342 12.2 195.388 12.2H199.392C199.99 12.2 200.512 12.3213 200.96 12.564C201.418 12.8067 201.768 13.152 202.01 13.6C202.262 14.048 202.388 14.566 202.388 15.154C202.388 15.7887 202.23 16.3347 201.912 16.792C201.595 17.24 201.152 17.5573 200.582 17.744C200.536 17.7627 200.522 17.7953 200.54 17.842L202.444 21.804C202.463 21.8413 202.472 21.8693 202.472 21.888C202.472 21.9627 202.421 22 202.318 22H200.596ZM197.264 13.894C197.218 13.894 197.194 13.9173 197.194 13.964V16.358C197.194 16.4047 197.218 16.428 197.264 16.428H199.098C199.49 16.428 199.808 16.3113 200.05 16.078C200.302 15.8447 200.428 15.5413 200.428 15.168C200.428 14.7947 200.302 14.4913 200.05 14.258C199.808 14.0153 199.49 13.894 199.098 13.894H197.264Z" fill="#F5F7FA"/>
<rect x="5" y="3" width="207" height="27" rx="7" stroke="#CBD2D9" stroke-width="2"/>
</g>
<defs>
<filter id="filter0_d" x="0" y="0" width="217" height="37" filterUnits="userSpaceOnUse" color-interpolation-filters="sRGB">
<feFlood flood-opacity="0" result="BackgroundImageFix"/>
<feColorMatrix in="SourceAlpha" type="matrix" values="0 0 0 0 0 0 0 0 0 0 0 0 0 0 0 0 0 0 127 0"/>
<feOffset dy="2"/>
<feGaussianBlur stdDeviation="2"/>
<feColorMatrix type="matrix" values="0 0 0 0 0 0 0 0 0 0 0 0 0 0 0 0 0 0 0.25 0"/>
<feBlend mode="normal" in2="BackgroundImageFix" result="effect1_dropShadow"/>
<feBlend mode="normal" in="SourceGraphic" in2="effect1_dropShadow" result="shape"/>
</filter>
</defs>
</svg>
