<svg width="291" height="37" viewBox="0 0 291 37" fill="none" xmlns="http://www.w3.org/2000/svg">
<g filter="url(#filter0_d)">
<rect x="5" y="3" width="281" height="27" rx="7" fill="#2684FF"/>
<rect x="14" y="15" width="29" height="3" rx="1.5" fill="#F5F7FA"/>
<path d="M61.3277 12.186C61.9437 12.186 62.4851 12.312 62.9517 12.564C63.4184 12.816 63.7777 13.1753 64.0297 13.642C64.2911 14.0993 64.4217 14.6267 64.4217 15.224C64.4217 15.812 64.2864 16.33 64.0157 16.778C63.7544 17.226 63.3811 17.576 62.8957 17.828C62.4197 18.0707 61.8691 18.192 61.2437 18.192H59.2557C59.2091 18.192 59.1857 18.2153 59.1857 18.262V21.832C59.1857 21.8787 59.1671 21.9207 59.1297 21.958C59.1017 21.986 59.0644 22 59.0177 22H57.3797C57.3331 22 57.2911 21.986 57.2537 21.958C57.2257 21.9207 57.2117 21.8787 57.2117 21.832V12.354C57.2117 12.3073 57.2257 12.27 57.2537 12.242C57.2911 12.2047 57.3331 12.186 57.3797 12.186H61.3277ZM61.0337 16.61C61.4631 16.61 61.8084 16.4887 62.0697 16.246C62.3311 15.994 62.4617 15.6673 62.4617 15.266C62.4617 14.8553 62.3311 14.524 62.0697 14.272C61.8084 14.02 61.4631 13.894 61.0337 13.894H59.2557C59.2091 13.894 59.1857 13.9173 59.1857 13.964V16.54C59.1857 16.5867 59.2091 16.61 59.2557 16.61H61.0337ZM71.0113 22C70.9179 22 70.8526 21.958 70.8153 21.874L69.0653 17.996C69.0466 17.9587 69.0186 17.94 68.9813 17.94H67.6793C67.6326 17.94 67.6093 17.9633 67.6093 18.01V21.832C67.6093 21.8787 67.5906 21.9207 67.5533 21.958C67.5253 21.986 67.4879 22 67.4413 22H65.8033C65.7566 22 65.7146 21.986 65.6773 21.958C65.6493 21.9207 65.6353 21.8787 65.6353 21.832V12.368C65.6353 12.3213 65.6493 12.284 65.6773 12.256C65.7146 12.2187 65.7566 12.2 65.8033 12.2H69.8073C70.4046 12.2 70.9273 12.3213 71.3753 12.564C71.8326 12.8067 72.1826 13.152 72.4253 13.6C72.6773 14.048 72.8033 14.566 72.8033 15.154C72.8033 15.7887 72.6446 16.3347 72.3273 16.792C72.0099 17.24 71.5666 17.5573 70.9973 17.744C70.9506 17.7627 70.9366 17.7953 70.9553 17.842L72.8593 21.804C72.8779 21.8413 72.8873 21.8693 72.8873 21.888C72.8873 21.9627 72.8359 22 72.7333 22H71.0113ZM67.6793 13.894C67.6326 13.894 67.6093 13.9173 67.6093 13.964V16.358C67.6093 16.4047 67.6326 16.428 67.6793 16.428H69.5133C69.9053 16.428 70.2226 16.3113 70.4653 16.078C70.7173 15.8447 70.8433 15.5413 70.8433 15.168C70.8433 14.7947 70.7173 14.4913 70.4653 14.258C70.2226 14.0153 69.9053 13.894 69.5133 13.894H67.6793ZM77.7209 22.154C76.9929 22.154 76.3489 22.0047 75.7889 21.706C75.2382 21.4073 74.8089 20.992 74.5009 20.46C74.1929 19.9187 74.0389 19.298 74.0389 18.598V15.602C74.0389 14.9113 74.1929 14.3 74.5009 13.768C74.8089 13.236 75.2382 12.8253 75.7889 12.536C76.3489 12.2373 76.9929 12.088 77.7209 12.088C78.4582 12.088 79.1022 12.2373 79.6529 12.536C80.2129 12.8253 80.6469 13.236 80.9549 13.768C81.2629 14.3 81.4169 14.9113 81.4169 15.602V18.598C81.4169 19.298 81.2629 19.9187 80.9549 20.46C80.6469 21.0013 80.2129 21.4213 79.6529 21.72C79.1022 22.0093 78.4582 22.154 77.7209 22.154ZM77.7209 20.46C78.2342 20.46 78.6495 20.2967 78.9669 19.97C79.2842 19.6433 79.4429 19.2093 79.4429 18.668V15.588C79.4429 15.0467 79.2842 14.6127 78.9669 14.286C78.6589 13.95 78.2435 13.782 77.7209 13.782C77.2075 13.782 76.7922 13.95 76.4749 14.286C76.1669 14.6127 76.0129 15.0467 76.0129 15.588V18.668C76.0129 19.2093 76.1669 19.6433 76.4749 19.97C76.7922 20.2967 77.2075 20.46 77.7209 20.46ZM83.0982 22C83.0515 22 83.0095 21.986 82.9722 21.958C82.9442 21.9207 82.9302 21.8787 82.9302 21.832V12.368C82.9302 12.3213 82.9442 12.284 82.9722 12.256C83.0095 12.2187 83.0515 12.2 83.0982 12.2H86.5982C87.2982 12.2 87.9095 12.326 88.4322 12.578C88.9642 12.8207 89.3748 13.166 89.6642 13.614C89.9535 14.062 90.0982 14.58 90.0982 15.168V19.032C90.0982 19.62 89.9535 20.138 89.6642 20.586C89.3748 21.034 88.9642 21.384 88.4322 21.636C87.9095 21.8787 87.2982 22 86.5982 22H83.0982ZM84.9042 20.236C84.9042 20.2827 84.9275 20.306 84.9742 20.306H86.6682C87.0975 20.306 87.4428 20.1613 87.7042 19.872C87.9748 19.5827 88.1148 19.1953 88.1242 18.71V15.49C88.1242 15.0047 87.9888 14.6173 87.7182 14.328C87.4568 14.0387 87.1022 13.894 86.6542 13.894H84.9742C84.9275 13.894 84.9042 13.9173 84.9042 13.964V20.236ZM95.1405 22.112C94.4218 22.112 93.7871 21.972 93.2365 21.692C92.6951 21.412 92.2705 21.02 91.9625 20.516C91.6638 20.0027 91.5145 19.4147 91.5145 18.752V12.368C91.5145 12.3213 91.5285 12.284 91.5565 12.256C91.5938 12.2187 91.6358 12.2 91.6825 12.2H93.3205C93.3671 12.2 93.4045 12.2187 93.4325 12.256C93.4698 12.284 93.4885 12.3213 93.4885 12.368V18.766C93.4885 19.2607 93.6378 19.662 93.9365 19.97C94.2445 20.2687 94.6458 20.418 95.1405 20.418C95.6351 20.418 96.0318 20.2687 96.3305 19.97C96.6385 19.662 96.7925 19.2607 96.7925 18.766V12.368C96.7925 12.3213 96.8065 12.284 96.8345 12.256C96.8718 12.2187 96.9138 12.2 96.9605 12.2H98.5985C98.6451 12.2 98.6825 12.2187 98.7105 12.256C98.7478 12.284 98.7665 12.3213 98.7665 12.368V18.752C98.7665 19.4147 98.6125 20.0027 98.3045 20.516C98.0058 21.02 97.5811 21.412 97.0305 21.692C96.4891 21.972 95.8591 22.112 95.1405 22.112ZM103.751 22.112C103.023 22.112 102.384 21.972 101.833 21.692C101.282 21.4027 100.858 21.0013 100.559 20.488C100.26 19.9747 100.111 19.382 100.111 18.71V15.476C100.111 14.804 100.26 14.2113 100.559 13.698C100.858 13.1847 101.282 12.788 101.833 12.508C102.384 12.228 103.023 12.088 103.751 12.088C104.47 12.088 105.1 12.2233 105.641 12.494C106.192 12.7553 106.616 13.1333 106.915 13.628C107.223 14.1133 107.377 14.678 107.377 15.322C107.377 15.406 107.321 15.4573 107.209 15.476L105.571 15.574H105.543C105.45 15.574 105.403 15.5227 105.403 15.42C105.403 14.9253 105.249 14.5287 104.941 14.23C104.642 13.9313 104.246 13.782 103.751 13.782C103.247 13.782 102.841 13.9313 102.533 14.23C102.234 14.5287 102.085 14.9253 102.085 15.42V18.794C102.085 19.2793 102.234 19.6713 102.533 19.97C102.841 20.2687 103.247 20.418 103.751 20.418C104.246 20.418 104.642 20.2687 104.941 19.97C105.249 19.6713 105.403 19.2793 105.403 18.794C105.403 18.6913 105.459 18.64 105.571 18.64L107.209 18.71C107.256 18.71 107.293 18.724 107.321 18.752C107.358 18.78 107.377 18.8127 107.377 18.85C107.377 19.494 107.223 20.0633 106.915 20.558C106.616 21.0527 106.192 21.4353 105.641 21.706C105.1 21.9767 104.47 22.112 103.751 22.112ZM115.477 12.2C115.524 12.2 115.561 12.2187 115.589 12.256C115.627 12.284 115.645 12.3213 115.645 12.368V13.74C115.645 13.7867 115.627 13.8287 115.589 13.866C115.561 13.894 115.524 13.908 115.477 13.908H112.971C112.925 13.908 112.901 13.9313 112.901 13.978V21.832C112.901 21.8787 112.883 21.9207 112.845 21.958C112.817 21.986 112.78 22 112.733 22H111.095C111.049 22 111.007 21.986 110.969 21.958C110.941 21.9207 110.927 21.8787 110.927 21.832V13.978C110.927 13.9313 110.904 13.908 110.857 13.908H108.421C108.375 13.908 108.333 13.894 108.295 13.866C108.267 13.8287 108.253 13.7867 108.253 13.74V12.368C108.253 12.3213 108.267 12.284 108.295 12.256C108.333 12.2187 108.375 12.2 108.421 12.2H115.477ZM117.073 22C117.026 22 116.984 21.986 116.947 21.958C116.919 21.9207 116.905 21.8787 116.905 21.832V12.368C116.905 12.3213 116.919 12.284 116.947 12.256C116.984 12.2187 117.026 12.2 117.073 12.2H118.711C118.757 12.2 118.795 12.2187 118.823 12.256C118.86 12.284 118.879 12.3213 118.879 12.368V21.832C118.879 21.8787 118.86 21.9207 118.823 21.958C118.795 21.986 118.757 22 118.711 22H117.073ZM123.187 22C123.093 22 123.033 21.9533 123.005 21.86L120.121 12.396L120.107 12.34C120.107 12.2467 120.158 12.2 120.261 12.2H122.025C122.127 12.2 122.193 12.2467 122.221 12.34L124.083 19.172C124.092 19.2 124.106 19.214 124.125 19.214C124.143 19.214 124.157 19.2 124.167 19.172L126.001 12.34C126.029 12.2467 126.094 12.2 126.197 12.2H127.919C127.975 12.2 128.017 12.2187 128.045 12.256C128.073 12.2933 128.077 12.34 128.059 12.396L125.133 21.86C125.105 21.9533 125.044 22 124.951 22H123.187ZM129.46 22C129.413 22 129.371 21.986 129.334 21.958C129.306 21.9207 129.292 21.8787 129.292 21.832V12.368C129.292 12.3213 129.306 12.284 129.334 12.256C129.371 12.2187 129.413 12.2 129.46 12.2H131.098C131.144 12.2 131.182 12.2187 131.21 12.256C131.247 12.284 131.266 12.3213 131.266 12.368V21.832C131.266 21.8787 131.247 21.9207 131.21 21.958C131.182 21.986 131.144 22 131.098 22H129.46ZM139.731 12.2C139.778 12.2 139.815 12.2187 139.843 12.256C139.881 12.284 139.899 12.3213 139.899 12.368V13.74C139.899 13.7867 139.881 13.8287 139.843 13.866C139.815 13.894 139.778 13.908 139.731 13.908H137.225C137.179 13.908 137.155 13.9313 137.155 13.978V21.832C137.155 21.8787 137.137 21.9207 137.099 21.958C137.071 21.986 137.034 22 136.987 22H135.349C135.303 22 135.261 21.986 135.223 21.958C135.195 21.9207 135.181 21.8787 135.181 21.832V13.978C135.181 13.9313 135.158 13.908 135.111 13.908H132.675C132.629 13.908 132.587 13.894 132.549 13.866C132.521 13.8287 132.507 13.7867 132.507 13.74V12.368C132.507 12.3213 132.521 12.284 132.549 12.256C132.587 12.2187 132.629 12.2 132.675 12.2H139.731ZM143.805 21.986C143.758 21.986 143.716 21.972 143.679 21.944C143.651 21.9067 143.637 21.8647 143.637 21.818V18.276C143.637 18.2387 143.632 18.2107 143.623 18.192L140.739 12.396C140.72 12.3587 140.711 12.3307 140.711 12.312C140.711 12.2373 140.762 12.2 140.865 12.2H142.629C142.722 12.2 142.787 12.242 142.825 12.326L144.575 16.05C144.603 16.106 144.631 16.106 144.659 16.05L146.409 12.326C146.446 12.242 146.511 12.2 146.605 12.2H148.397C148.462 12.2 148.504 12.2187 148.523 12.256C148.551 12.284 148.551 12.3307 148.523 12.396L145.611 18.192C145.601 18.2107 145.597 18.2387 145.597 18.276V21.818C145.597 21.8647 145.578 21.9067 145.541 21.944C145.513 21.972 145.475 21.986 145.429 21.986H143.805ZM160.904 21.79C160.941 21.846 160.96 21.8833 160.96 21.902C160.96 21.9673 160.909 22 160.806 22H158.972C158.888 22 158.818 21.9673 158.762 21.902L158.216 21.314C158.197 21.286 158.165 21.2813 158.118 21.3C157.25 21.8413 156.317 22.112 155.318 22.112C154.441 22.112 153.708 21.9067 153.12 21.496C152.541 21.076 152.252 20.46 152.252 19.648C152.252 19.0227 152.42 18.4953 152.756 18.066C153.092 17.6367 153.549 17.2493 154.128 16.904C154.184 16.8667 154.189 16.834 154.142 16.806C153.675 16.2367 153.367 15.798 153.218 15.49C153.069 15.1727 152.994 14.8367 152.994 14.482C152.994 14.0433 153.111 13.642 153.344 13.278C153.587 12.9047 153.923 12.6153 154.352 12.41C154.791 12.1953 155.29 12.088 155.85 12.088C156.419 12.088 156.928 12.1953 157.376 12.41C157.833 12.6247 158.188 12.928 158.44 13.32C158.692 13.7027 158.818 14.1413 158.818 14.636C158.818 15.2147 158.655 15.7187 158.328 16.148C158.011 16.568 157.577 16.9507 157.026 17.296C156.979 17.324 156.975 17.3567 157.012 17.394L158.258 18.808C158.295 18.8453 158.333 18.8453 158.37 18.808C158.725 18.416 159.014 18.0427 159.238 17.688C159.294 17.5853 159.369 17.5667 159.462 17.632L160.68 18.318C160.783 18.374 160.806 18.4487 160.75 18.542C160.358 19.158 159.947 19.6947 159.518 20.152C159.49 20.18 159.499 20.222 159.546 20.278L160.904 21.79ZM155.892 13.88C155.612 13.88 155.388 13.9547 155.22 14.104C155.052 14.244 154.968 14.4353 154.968 14.678C154.968 14.8087 155.015 14.9533 155.108 15.112C155.201 15.2707 155.407 15.5413 155.724 15.924C155.743 15.9613 155.775 15.9707 155.822 15.952C156.158 15.7373 156.41 15.532 156.578 15.336C156.755 15.14 156.844 14.9207 156.844 14.678C156.844 14.4353 156.755 14.244 156.578 14.104C156.401 13.9547 156.172 13.88 155.892 13.88ZM155.388 20.46C155.836 20.46 156.34 20.3013 156.9 19.984C156.956 19.9467 156.961 19.914 156.914 19.886L156.48 19.396L156.158 19.046C155.953 18.8313 155.715 18.57 155.444 18.262C155.425 18.234 155.393 18.2293 155.346 18.248C155.01 18.4533 154.753 18.6493 154.576 18.836C154.399 19.0227 154.296 19.2373 154.268 19.48C154.259 19.508 154.254 19.5547 154.254 19.62C154.254 19.872 154.357 20.0773 154.562 20.236C154.777 20.3853 155.052 20.46 155.388 20.46ZM168.636 22.112C167.889 22.112 167.236 21.9953 166.676 21.762C166.116 21.5193 165.682 21.1787 165.374 20.74C165.075 20.292 164.926 19.774 164.926 19.186V18.878C164.926 18.8313 164.94 18.794 164.968 18.766C165.005 18.7287 165.047 18.71 165.094 18.71H166.69C166.737 18.71 166.774 18.7287 166.802 18.766C166.839 18.794 166.858 18.8313 166.858 18.878V19.088C166.858 19.4613 167.031 19.7787 167.376 20.04C167.721 20.292 168.188 20.418 168.776 20.418C169.271 20.418 169.639 20.3153 169.882 20.11C170.125 19.8953 170.246 19.634 170.246 19.326C170.246 19.102 170.171 18.9153 170.022 18.766C169.873 18.6073 169.667 18.472 169.406 18.36C169.154 18.2387 168.748 18.0753 168.188 17.87C167.563 17.6553 167.031 17.436 166.592 17.212C166.163 16.988 165.799 16.6847 165.5 16.302C165.211 15.91 165.066 15.4293 165.066 14.86C165.066 14.3 165.211 13.81 165.5 13.39C165.789 12.97 166.191 12.648 166.704 12.424C167.217 12.2 167.81 12.088 168.482 12.088C169.191 12.088 169.821 12.214 170.372 12.466C170.932 12.718 171.366 13.0727 171.674 13.53C171.991 13.978 172.15 14.5007 172.15 15.098V15.308C172.15 15.3547 172.131 15.3967 172.094 15.434C172.066 15.462 172.029 15.476 171.982 15.476H170.372C170.325 15.476 170.283 15.462 170.246 15.434C170.218 15.3967 170.204 15.3547 170.204 15.308V15.196C170.204 14.804 170.041 14.4727 169.714 14.202C169.397 13.922 168.958 13.782 168.398 13.782C167.959 13.782 167.614 13.8753 167.362 14.062C167.119 14.2487 166.998 14.5053 166.998 14.832C166.998 15.0653 167.068 15.2613 167.208 15.42C167.357 15.5787 167.572 15.7233 167.852 15.854C168.141 15.9753 168.585 16.1433 169.182 16.358C169.845 16.6007 170.363 16.8153 170.736 17.002C171.119 17.1887 171.459 17.4687 171.758 17.842C172.066 18.206 172.22 18.682 172.22 19.27C172.22 20.1473 171.898 20.8427 171.254 21.356C170.61 21.86 169.737 22.112 168.636 22.112ZM175.852 21.986C175.805 21.986 175.763 21.972 175.726 21.944C175.698 21.9067 175.684 21.8647 175.684 21.818V18.276C175.684 18.2387 175.679 18.2107 175.67 18.192L172.786 12.396C172.767 12.3587 172.758 12.3307 172.758 12.312C172.758 12.2373 172.809 12.2 172.912 12.2H174.676C174.769 12.2 174.834 12.242 174.872 12.326L176.622 16.05C176.65 16.106 176.678 16.106 176.706 16.05L178.456 12.326C178.493 12.242 178.558 12.2 178.652 12.2H180.444C180.509 12.2 180.551 12.2187 180.57 12.256C180.598 12.284 180.598 12.3307 180.57 12.396L177.658 18.192C177.648 18.2107 177.644 18.2387 177.644 18.276V21.818C177.644 21.8647 177.625 21.9067 177.588 21.944C177.56 21.972 177.522 21.986 177.476 21.986H175.852ZM184.796 22.112C184.049 22.112 183.396 21.9953 182.836 21.762C182.276 21.5193 181.842 21.1787 181.534 20.74C181.235 20.292 181.086 19.774 181.086 19.186V18.878C181.086 18.8313 181.1 18.794 181.128 18.766C181.165 18.7287 181.207 18.71 181.254 18.71H182.85C182.897 18.71 182.934 18.7287 182.962 18.766C182.999 18.794 183.018 18.8313 183.018 18.878V19.088C183.018 19.4613 183.191 19.7787 183.536 20.04C183.881 20.292 184.348 20.418 184.936 20.418C185.431 20.418 185.799 20.3153 186.042 20.11C186.285 19.8953 186.406 19.634 186.406 19.326C186.406 19.102 186.331 18.9153 186.182 18.766C186.033 18.6073 185.827 18.472 185.566 18.36C185.314 18.2387 184.908 18.0753 184.348 17.87C183.723 17.6553 183.191 17.436 182.752 17.212C182.323 16.988 181.959 16.6847 181.66 16.302C181.371 15.91 181.226 15.4293 181.226 14.86C181.226 14.3 181.371 13.81 181.66 13.39C181.949 12.97 182.351 12.648 182.864 12.424C183.377 12.2 183.97 12.088 184.642 12.088C185.351 12.088 185.981 12.214 186.532 12.466C187.092 12.718 187.526 13.0727 187.834 13.53C188.151 13.978 188.31 14.5007 188.31 15.098V15.308C188.31 15.3547 188.291 15.3967 188.254 15.434C188.226 15.462 188.189 15.476 188.142 15.476H186.532C186.485 15.476 186.443 15.462 186.406 15.434C186.378 15.3967 186.364 15.3547 186.364 15.308V15.196C186.364 14.804 186.201 14.4727 185.874 14.202C185.557 13.922 185.118 13.782 184.558 13.782C184.119 13.782 183.774 13.8753 183.522 14.062C183.279 14.2487 183.158 14.5053 183.158 14.832C183.158 15.0653 183.228 15.2613 183.368 15.42C183.517 15.5787 183.732 15.7233 184.012 15.854C184.301 15.9753 184.745 16.1433 185.342 16.358C186.005 16.6007 186.523 16.8153 186.896 17.002C187.279 17.1887 187.619 17.4687 187.918 17.842C188.226 18.206 188.38 18.682 188.38 19.27C188.38 20.1473 188.058 20.8427 187.414 21.356C186.77 21.86 185.897 22.112 184.796 22.112ZM196.415 12.2C196.461 12.2 196.499 12.2187 196.527 12.256C196.564 12.284 196.583 12.3213 196.583 12.368V13.74C196.583 13.7867 196.564 13.8287 196.527 13.866C196.499 13.894 196.461 13.908 196.415 13.908H193.909C193.862 13.908 193.839 13.9313 193.839 13.978V21.832C193.839 21.8787 193.82 21.9207 193.783 21.958C193.755 21.986 193.717 22 193.671 22H192.033C191.986 22 191.944 21.986 191.907 21.958C191.879 21.9207 191.865 21.8787 191.865 21.832V13.978C191.865 13.9313 191.841 13.908 191.795 13.908H189.359C189.312 13.908 189.27 13.894 189.233 13.866C189.205 13.8287 189.191 13.7867 189.191 13.74V12.368C189.191 12.3213 189.205 12.284 189.233 12.256C189.27 12.2187 189.312 12.2 189.359 12.2H196.415ZM204.646 13.726C204.646 13.7727 204.628 13.8147 204.59 13.852C204.562 13.88 204.525 13.894 204.478 13.894H199.886C199.84 13.894 199.816 13.9173 199.816 13.964V16.134C199.816 16.1807 199.84 16.204 199.886 16.204H202.896C202.943 16.204 202.98 16.2227 203.008 16.26C203.046 16.288 203.064 16.3253 203.064 16.372V17.73C203.064 17.7767 203.046 17.8187 203.008 17.856C202.98 17.884 202.943 17.898 202.896 17.898H199.886C199.84 17.898 199.816 17.9213 199.816 17.968V20.236C199.816 20.2827 199.84 20.306 199.886 20.306H204.478C204.525 20.306 204.562 20.3247 204.59 20.362C204.628 20.39 204.646 20.4273 204.646 20.474V21.832C204.646 21.8787 204.628 21.9207 204.59 21.958C204.562 21.986 204.525 22 204.478 22H198.01C197.964 22 197.922 21.986 197.884 21.958C197.856 21.9207 197.842 21.8787 197.842 21.832V12.368C197.842 12.3213 197.856 12.284 197.884 12.256C197.922 12.2187 197.964 12.2 198.01 12.2H204.478C204.525 12.2 204.562 12.2187 204.59 12.256C204.628 12.284 204.646 12.3213 204.646 12.368V13.726ZM212.318 12.312C212.365 12.2373 212.43 12.2 212.514 12.2H214.152C214.199 12.2 214.236 12.2187 214.264 12.256C214.301 12.284 214.32 12.3213 214.32 12.368V21.832C214.32 21.8787 214.301 21.9207 214.264 21.958C214.236 21.986 214.199 22 214.152 22H212.514C212.467 22 212.425 21.986 212.388 21.958C212.36 21.9207 212.346 21.8787 212.346 21.832V15.658C212.346 15.6207 212.337 15.602 212.318 15.602C212.299 15.602 212.281 15.616 212.262 15.644L210.778 17.968C210.731 18.0427 210.666 18.08 210.582 18.08H209.756C209.672 18.08 209.607 18.0427 209.56 17.968L208.076 15.644C208.057 15.616 208.039 15.6067 208.02 15.616C208.001 15.616 207.992 15.6347 207.992 15.672V21.832C207.992 21.8787 207.973 21.9207 207.936 21.958C207.908 21.986 207.871 22 207.824 22H206.186C206.139 22 206.097 21.986 206.06 21.958C206.032 21.9207 206.018 21.8787 206.018 21.832V12.368C206.018 12.3213 206.032 12.284 206.06 12.256C206.097 12.2187 206.139 12.2 206.186 12.2H207.824C207.908 12.2 207.973 12.2373 208.02 12.312L210.12 15.574C210.148 15.63 210.176 15.63 210.204 15.574L212.318 12.312ZM219.386 22.112C218.639 22.112 217.986 21.9953 217.426 21.762C216.866 21.5193 216.432 21.1787 216.124 20.74C215.825 20.292 215.676 19.774 215.676 19.186V18.878C215.676 18.8313 215.69 18.794 215.718 18.766C215.755 18.7287 215.797 18.71 215.844 18.71H217.44C217.487 18.71 217.524 18.7287 217.552 18.766C217.589 18.794 217.608 18.8313 217.608 18.878V19.088C217.608 19.4613 217.781 19.7787 218.126 20.04C218.471 20.292 218.938 20.418 219.526 20.418C220.021 20.418 220.389 20.3153 220.632 20.11C220.875 19.8953 220.996 19.634 220.996 19.326C220.996 19.102 220.921 18.9153 220.772 18.766C220.623 18.6073 220.417 18.472 220.156 18.36C219.904 18.2387 219.498 18.0753 218.938 17.87C218.313 17.6553 217.781 17.436 217.342 17.212C216.913 16.988 216.549 16.6847 216.25 16.302C215.961 15.91 215.816 15.4293 215.816 14.86C215.816 14.3 215.961 13.81 216.25 13.39C216.539 12.97 216.941 12.648 217.454 12.424C217.967 12.2 218.56 12.088 219.232 12.088C219.941 12.088 220.571 12.214 221.122 12.466C221.682 12.718 222.116 13.0727 222.424 13.53C222.741 13.978 222.9 14.5007 222.9 15.098V15.308C222.9 15.3547 222.881 15.3967 222.844 15.434C222.816 15.462 222.779 15.476 222.732 15.476H221.122C221.075 15.476 221.033 15.462 220.996 15.434C220.968 15.3967 220.954 15.3547 220.954 15.308V15.196C220.954 14.804 220.791 14.4727 220.464 14.202C220.147 13.922 219.708 13.782 219.148 13.782C218.709 13.782 218.364 13.8753 218.112 14.062C217.869 14.2487 217.748 14.5053 217.748 14.832C217.748 15.0653 217.818 15.2613 217.958 15.42C218.107 15.5787 218.322 15.7233 218.602 15.854C218.891 15.9753 219.335 16.1433 219.932 16.358C220.595 16.6007 221.113 16.8153 221.486 17.002C221.869 17.1887 222.209 17.4687 222.508 17.842C222.816 18.206 222.97 18.682 222.97 19.27C222.97 20.1473 222.648 20.8427 222.004 21.356C221.36 21.86 220.487 22.112 219.386 22.112ZM233.959 13.726C233.959 13.7727 233.94 13.8147 233.903 13.852C233.875 13.88 233.837 13.894 233.791 13.894H229.199C229.152 13.894 229.129 13.9173 229.129 13.964V16.134C229.129 16.1807 229.152 16.204 229.199 16.204H232.209C232.255 16.204 232.293 16.2227 232.321 16.26C232.358 16.288 232.377 16.3253 232.377 16.372V17.73C232.377 17.7767 232.358 17.8187 232.321 17.856C232.293 17.884 232.255 17.898 232.209 17.898H229.199C229.152 17.898 229.129 17.9213 229.129 17.968V20.236C229.129 20.2827 229.152 20.306 229.199 20.306H233.791C233.837 20.306 233.875 20.3247 233.903 20.362C233.94 20.39 233.959 20.4273 233.959 20.474V21.832C233.959 21.8787 233.94 21.9207 233.903 21.958C233.875 21.986 233.837 22 233.791 22H227.323C227.276 22 227.234 21.986 227.197 21.958C227.169 21.9207 227.155 21.8787 227.155 21.832V12.368C227.155 12.3213 227.169 12.284 227.197 12.256C227.234 12.2187 227.276 12.2 227.323 12.2H233.791C233.837 12.2 233.875 12.2187 233.903 12.256C233.94 12.284 233.959 12.3213 233.959 12.368V13.726ZM235.051 22C234.985 22 234.939 21.9813 234.911 21.944C234.883 21.9067 234.887 21.86 234.925 21.804L237.641 17.142C237.659 17.114 237.659 17.086 237.641 17.058L234.925 12.396L234.897 12.312C234.897 12.2373 234.948 12.2 235.051 12.2H236.829C236.922 12.2 236.992 12.2373 237.039 12.312L238.859 15.518C238.887 15.574 238.915 15.574 238.943 15.518L240.763 12.312C240.809 12.2373 240.879 12.2 240.973 12.2H242.737C242.802 12.2 242.849 12.2187 242.877 12.256C242.905 12.2933 242.9 12.34 242.863 12.396L240.147 17.058C240.137 17.086 240.137 17.114 240.147 17.142L242.863 21.804L242.891 21.888C242.891 21.9627 242.839 22 242.737 22H240.973C240.879 22 240.809 21.9627 240.763 21.888L238.943 18.696C238.915 18.64 238.887 18.64 238.859 18.696L237.025 21.888C236.978 21.9627 236.908 22 236.815 22H235.051ZM248.168 12.186C248.784 12.186 249.325 12.312 249.792 12.564C250.258 12.816 250.618 13.1753 250.87 13.642C251.131 14.0993 251.262 14.6267 251.262 15.224C251.262 15.812 251.126 16.33 250.856 16.778C250.594 17.226 250.221 17.576 249.736 17.828C249.26 18.0707 248.709 18.192 248.084 18.192H246.096C246.049 18.192 246.026 18.2153 246.026 18.262V21.832C246.026 21.8787 246.007 21.9207 245.97 21.958C245.942 21.986 245.904 22 245.858 22H244.22C244.173 22 244.131 21.986 244.094 21.958C244.066 21.9207 244.052 21.8787 244.052 21.832V12.354C244.052 12.3073 244.066 12.27 244.094 12.242C244.131 12.2047 244.173 12.186 244.22 12.186H248.168ZM247.874 16.61C248.303 16.61 248.648 16.4887 248.91 16.246C249.171 15.994 249.302 15.6673 249.302 15.266C249.302 14.8553 249.171 14.524 248.91 14.272C248.648 14.02 248.303 13.894 247.874 13.894H246.096C246.049 13.894 246.026 13.9173 246.026 13.964V16.54C246.026 16.5867 246.049 16.61 246.096 16.61H247.874ZM259.279 13.726C259.279 13.7727 259.26 13.8147 259.223 13.852C259.195 13.88 259.158 13.894 259.111 13.894H254.519C254.472 13.894 254.449 13.9173 254.449 13.964V16.134C254.449 16.1807 254.472 16.204 254.519 16.204H257.529C257.576 16.204 257.613 16.2227 257.641 16.26C257.678 16.288 257.697 16.3253 257.697 16.372V17.73C257.697 17.7767 257.678 17.8187 257.641 17.856C257.613 17.884 257.576 17.898 257.529 17.898H254.519C254.472 17.898 254.449 17.9213 254.449 17.968V20.236C254.449 20.2827 254.472 20.306 254.519 20.306H259.111C259.158 20.306 259.195 20.3247 259.223 20.362C259.26 20.39 259.279 20.4273 259.279 20.474V21.832C259.279 21.8787 259.26 21.9207 259.223 21.958C259.195 21.986 259.158 22 259.111 22H252.643C252.596 22 252.554 21.986 252.517 21.958C252.489 21.9207 252.475 21.8787 252.475 21.832V12.368C252.475 12.3213 252.489 12.284 252.517 12.256C252.554 12.2187 252.596 12.2 252.643 12.2H259.111C259.158 12.2 259.195 12.2187 259.223 12.256C259.26 12.284 259.279 12.3213 259.279 12.368V13.726ZM266.027 22C265.934 22 265.868 21.958 265.831 21.874L264.081 17.996C264.062 17.9587 264.034 17.94 263.997 17.94H262.695C262.648 17.94 262.625 17.9633 262.625 18.01V21.832C262.625 21.8787 262.606 21.9207 262.569 21.958C262.541 21.986 262.504 22 262.457 22H260.819C260.772 22 260.73 21.986 260.693 21.958C260.665 21.9207 260.651 21.8787 260.651 21.832V12.368C260.651 12.3213 260.665 12.284 260.693 12.256C260.73 12.2187 260.772 12.2 260.819 12.2H264.823C265.42 12.2 265.943 12.3213 266.391 12.564C266.848 12.8067 267.198 13.152 267.441 13.6C267.693 14.048 267.819 14.566 267.819 15.154C267.819 15.7887 267.66 16.3347 267.343 16.792C267.026 17.24 266.582 17.5573 266.013 17.744C265.966 17.7627 265.952 17.7953 265.971 17.842L267.875 21.804C267.894 21.8413 267.903 21.8693 267.903 21.888C267.903 21.9627 267.852 22 267.749 22H266.027ZM262.695 13.894C262.648 13.894 262.625 13.9173 262.625 13.964V16.358C262.625 16.4047 262.648 16.428 262.695 16.428H264.529C264.921 16.428 265.238 16.3113 265.481 16.078C265.733 15.8447 265.859 15.5413 265.859 15.168C265.859 14.7947 265.733 14.4913 265.481 14.258C265.238 14.0153 264.921 13.894 264.529 13.894H262.695ZM275.999 12.2C276.045 12.2 276.083 12.2187 276.111 12.256C276.148 12.284 276.167 12.3213 276.167 12.368V13.74C276.167 13.7867 276.148 13.8287 276.111 13.866C276.083 13.894 276.045 13.908 275.999 13.908H273.493C273.446 13.908 273.423 13.9313 273.423 13.978V21.832C273.423 21.8787 273.404 21.9207 273.367 21.958C273.339 21.986 273.301 22 273.255 22H271.617C271.57 22 271.528 21.986 271.491 21.958C271.463 21.9207 271.449 21.8787 271.449 21.832V13.978C271.449 13.9313 271.425 13.908 271.379 13.908H268.943C268.896 13.908 268.854 13.894 268.817 13.866C268.789 13.8287 268.775 13.7867 268.775 13.74V12.368C268.775 12.3213 268.789 12.284 268.817 12.256C268.854 12.2187 268.896 12.2 268.943 12.2H275.999Z" fill="#F5F7FA"/>
<rect x="5" y="3" width="281" height="27" rx="7" stroke="#CBD2D9" stroke-width="2"/>
</g>
<defs>
<filter id="filter0_d" x="0" y="0" width="291" height="37" filterUnits="userSpaceOnUse" color-interpolation-filters="sRGB">
<feFlood flood-opacity="0" result="BackgroundImageFix"/>
<feColorMatrix in="SourceAlpha" type="matrix" values="0 0 0 0 0 0 0 0 0 0 0 0 0 0 0 0 0 0 127 0"/>
<feOffset dy="2"/>
<feGaussianBlur stdDeviation="2"/>
<feColorMatrix type="matrix" values="0 0 0 0 0 0 0 0 0 0 0 0 0 0 0 0 0 0 0.25 0"/>
<feBlend mode="normal" in2="BackgroundImageFix" result="effect1_dropShadow"/>
<feBlend mode="normal" in="SourceGraphic" in2="effect1_dropShadow" result="shape"/>
</filter>
</defs>
</svg>
